<?xml version="1.0" encoding="utf-8"?>
<!-- Generator: Adobe Illustrator 25.2.1, SVG Export Plug-In . SVG Version: 6.00 Build 0)  -->
<svg version="1.1" id="Capa_1" xmlns="http://www.w3.org/2000/svg" xmlns:xlink="http://www.w3.org/1999/xlink" x="0px" y="0px"
	 viewBox="0 0 512 512" style="enable-background:new 0 0 512 512;" xml:space="preserve">
<style type="text/css">
	.st0{fill:#D7F1D5;}
	.st1{fill:#D7F1D5;stroke:#FFFFFF;stroke-width:20;stroke-miterlimit:10;}
</style>
<path class="st0" d="M408.4,124.4l-120-120c-2.8-2.8-6.7-4.4-10.6-4.4h-210c-24.8,0-45,20.2-45,45v422c0,24.8,20.2,45,45,45h300
	c24.8,0,45-20.2,45-45V135C412.8,130.9,411,127,408.4,124.4z M292.8,51.2l68.8,68.8h-53.8c-8.3,0-15-6.7-15-15V51.2z M367.8,482
	h-300c-8.3,0-15-6.7-15-15V45c0-8.3,6.7-15,15-15h195v75c0,24.8,20.2,45,45,45h75v317C382.8,475.3,376.1,482,367.8,482z"/>
<path class="st0" d="M309.3,241H161.9c-8.1,0-14.7,6.7-14.7,15s6.6,15,14.7,15h147.4c8.1,0,14.7-6.7,14.7-15S317.5,241,309.3,241z"
	/>
<path class="st0" d="M266.3,301H158c-6,0-10.8,6.7-10.8,15s4.8,15,10.8,15h108.3c6,0,10.8-6.7,10.8-15S272.2,301,266.3,301z"/>
<path class="st0" d="M229.7,361h-75c-4.1,0-7.5,6.7-7.5,15s3.4,15,7.5,15h75c4.1,0,7.5-6.7,7.5-15S233.8,361,229.7,361z"/>
<circle class="st0" cx="102.2" cy="256" r="15"/>
<circle class="st0" cx="102.2" cy="316" r="15"/>
<circle class="st0" cx="102.2" cy="376" r="15"/>
<g>
	<polygon class="st1" points="249.5,387.9 261.6,452.4 327.1,440.1 484.6,213.7 407,161.6 	"/>
	<path class="st1" d="M497.9,153.3l-44.7-30.7c-7.5-5.1-17.7-3.2-22.8,4.3L406.5,162l71.7,49.2l23.9-35.1
		C507.3,168.7,505.3,158.4,497.9,153.3z"/>
</g>
<path class="st0" d="M312.2,191.3h-150c-8.3,0-15,6.7-15,15s6.7,15,15,15h150c8.3,0,15-6.7,15-15S320.5,191.3,312.2,191.3z"/>
<circle class="st0" cx="102.2" cy="206.3" r="15"/>
</svg>
