<?xml version="1.0" encoding="utf-8"?>
<!-- Generator: Adobe Illustrator 25.2.1, SVG Export Plug-In . SVG Version: 6.00 Build 0)  -->
<svg version="1.1" id="Capa_1" xmlns="http://www.w3.org/2000/svg" xmlns:xlink="http://www.w3.org/1999/xlink" x="0px" y="0px"
	 viewBox="0 0 512 512" style="enable-background:new 0 0 512 512;" xml:space="preserve">
<style type="text/css">
	.st0{fill:#D7F1D5;}
	.st1{fill:#FFFFFF;}
</style>
<g>
	<path class="st0" d="M307.2,241H159.8c-8.1,0-14.7,6.7-14.7,15s6.6,15,14.7,15h147.4c8.1,0,14.7-6.7,14.7-15S315.3,241,307.2,241z"
		/>
	<path class="st0" d="M264.1,301H155.8c-6,0-10.8,6.7-10.8,15s4.8,15,10.8,15h108.3c6,0,10.8-6.7,10.8-15S270.1,301,264.1,301z"/>
	<path class="st0" d="M227.5,361h-75c-4.1,0-7.5,6.7-7.5,15s3.4,15,7.5,15h75c4.1,0,7.5-6.7,7.5-15S231.7,361,227.5,361z"/>
	<circle class="st0" cx="100" cy="256" r="15"/>
	<circle class="st0" cx="100" cy="316" r="15"/>
	<circle class="st0" cx="100" cy="376" r="15"/>
	<path class="st0" d="M310,191.3H160c-8.3,0-15,6.7-15,15s6.7,15,15,15h150c8.3,0,15-6.7,15-15S318.3,191.3,310,191.3z"/>
	<circle class="st0" cx="100" cy="206.3" r="15"/>
	<g>
		<path class="st0" d="M406.2,124.4l-120-120c-2.9-2.8-6.7-4.4-10.6-4.4h-210c-24.8,0-45,20.2-45,45v422c0,24.8,20.2,45,45,45h300
			c24.8,0,45-20.2,45-45V334.8l-30,30V467c0,8.3-6.7,15-15,15h-300c-8.3,0-15-6.7-15-15V45c0-8.3,6.7-15,15-15h195v75
			c0,24.8,20.2,45,45,45h75v119.4l30-30V135C410.6,130.9,408.9,127,406.2,124.4z M305.6,120c-8.3,0-15-6.7-15-15V51.2l68.8,68.8
			H305.6z"/>
		<g>
			<path class="st0" d="M483.9,225.5l-21.7-21.7c-9.9-9.9-26-9.9-35.9,0l-15.7,15.7c-8,8-18.4,18.4-30,30
				c-45.5,45.5-109.2,109.2-115.5,115.5c-1,1-1.7,2.4-1.9,3.7l-10.8,58.5c-0.4,2.3,0.3,4.6,1.9,6.2c1.6,1.6,4,2.4,6.2,1.9l58.5-10.8
				c1.3-0.2,2.7-0.9,3.7-1.9l57.9-57.9V345l-62.9,62.9L280,370l100.6-100.6l30-30l7.2-7.2l37.8,37.8l-45,45v19.8l73.3-73.3
				C493.9,251.5,493.9,235.5,483.9,225.5z M303.4,413.3l-35.4,6.5l6.5-35.4L303.4,413.3z M474,251.5l-8.5,8.5l-37.8-37.8l8.5-8.5
				c4.4-4.4,11.7-4.4,16.1,0l21.7,21.7C478.5,239.9,478.5,247.1,474,251.5z"/>
			<polygon class="st0" points="410.6,315 410.6,334.8 380.6,364.8 380.6,345 			"/>
		</g>
	</g>
	<polygon class="st1" points="410.7,334.7 410.7,354.5 380.5,384.5 380.5,364.7 	"/>
	<polygon class="st1" points="410.6,199.8 410.6,219.6 380.5,249.6 380.5,229.8 	"/>
</g>
</svg>
