<?xml version="1.0"?>
<svg xmlns="http://www.w3.org/2000/svg" viewBox="0 0 512 512" width="512" height="512"><g id="outline"><path d="M488,192H408.517l14.118-20.958a8,8,0,0,0-2.166-11.1l-92.89-62.573a8,8,0,0,0-11.105,2.165l-37.99,56.4-10.491.532A116.593,116.593,0,0,0,216.8,171.32l-25.135,14.2a22.9,22.9,0,0,0-7.275,6.5c-.131-.007-.26-.02-.393-.02H24a8,8,0,0,0-7.791,9.817l14.535,62.29c.006.025.011.05.017.074l36.76,157.546A33.861,33.861,0,0,0,100.632,448H411.368a33.861,33.861,0,0,0,33.111-26.273l51.312-219.91A8,8,0,0,0,488,192ZM196.168,204.1a6.833,6.833,0,0,1,3.372-4.641l25.134-14.2A100.539,100.539,0,0,1,268.8,172.439l14.487-.734a8,8,0,0,0,6.23-3.519L325.275,115.1,404.9,168.738l-26.817,39.81a7.991,7.991,0,0,0-1.185,2.784l-3.316,15.382A133.435,133.435,0,0,1,361.6,260.072c-.077.136-.151.275-.22.416a134.654,134.654,0,0,1-7.652,12.855l-60.7,90.116a8,8,0,0,1-13.27-8.939l40.226-59.715a8,8,0,0,0-13.271-8.94L266.48,345.58c-.242.36-.472.725-.693,1.094-.146.181-.289.366-.422.562l-3.349,4.972,0,.007a8,8,0,1,1-13.27-8.938l44.695-66.35a8,8,0,0,0-13.271-8.94l-44.694,66.351A8,8,0,1,1,222.2,325.4l44.7-66.35a8,8,0,0,0-13.271-8.94L213.4,309.819l0,.006a8,8,0,1,1-13.269-8.939l40.225-59.715,13.408-19.9a8,8,0,0,0-7.289-12.443l-42.969,3.529a6.907,6.907,0,0,1-7.337-8.257ZM180.175,208a22.9,22.9,0,0,0,24.638,20.3l26.381-2.167-4.11,6.1-14.671,21.781c-.408,0-.818-.012-1.223-.012-24.1,0-36.275,5.437-48.051,10.694C152.42,269.479,142.3,274,121.6,274s-30.816-4.52-41.534-9.305c-9.425-4.208-19.156-8.535-35.11-10.09L34.082,208ZM428.9,418.09A17.925,17.925,0,0,1,411.368,432H100.632A17.925,17.925,0,0,1,83.1,418.091L48.835,271.228c10.314,1.66,17.361,4.8,24.708,8.078C85.32,284.563,97.5,290,121.6,290s36.284-5.438,48.062-10.7c8.87-3.96,17.339-7.736,31.723-8.92l-14.526,21.563a24.013,24.013,0,0,0,18,37.34,23.9,23.9,0,0,0,27.265,24.335,23.952,23.952,0,0,0,23.218,18.117,24.189,24.189,0,0,0,9.6-1.995A23.988,23.988,0,0,0,286.335,383a24.236,24.236,0,0,0,4.644-.451A23.841,23.841,0,0,0,306.29,372.4l60.7-90.115q3.648-5.415,6.784-11.086A106,106,0,0,1,390.4,270c20.7,0,30.821,4.521,41.539,9.307,7.751,3.461,15.721,7.013,27.234,9.031Zm33.92-145.369c-10.109-1.671-17.069-4.771-24.354-8.024C426.686,259.438,414.507,254,390.4,254c-2.97,0-5.812.09-8.561.257a150.089,150.089,0,0,0,7.38-24.172l2.99-13.876,5.719-8.49A7.958,7.958,0,0,0,400,208h77.918Z"/><path d="M96,144a32,32,0,1,0,32-32A32.036,32.036,0,0,0,96,144Zm48,0a16,16,0,1,1-16-16A16.019,16.019,0,0,1,144,144Z"/><path d="M128,320a24,24,0,1,0,24,24A24.027,24.027,0,0,0,128,320Zm0,32a8,8,0,1,1,8-8A8.009,8.009,0,0,1,128,352Z"/><path d="M384,328a32,32,0,1,0,32,32A32.036,32.036,0,0,0,384,328Zm0,48a16,16,0,1,1,16-16A16.019,16.019,0,0,1,384,376Z"/><path d="M216,72a24,24,0,1,0,24-24A24.027,24.027,0,0,0,216,72Zm32,0a8,8,0,1,1-8-8A8.009,8.009,0,0,1,248,72Z"/></g></svg>
