<?xml version="1.0" encoding="iso-8859-1"?>
<!-- Generator: Adobe Illustrator 21.0.0, SVG Export Plug-In . SVG Version: 6.00 Build 0)  -->
<svg version="1.1" id="Capa_1" xmlns="http://www.w3.org/2000/svg" xmlns:xlink="http://www.w3.org/1999/xlink" x="0px" y="0px"
	 viewBox="0 0 512 512" style="enable-background:new 0 0 512 512;" xml:space="preserve">
<g>
	<g>
		<path d="M443.077,0H68.923C44.492,0,24.615,19.876,24.615,44.308v59.077h462.769V44.308C487.385,19.876,467.508,0,443.077,0z
			 M354.446,81.231h-29.531c-8.157,0-14.769-6.613-14.769-14.769s6.613-14.769,14.769-14.769h29.531
			c8.157,0,14.769,6.613,14.769,14.769S362.602,81.231,354.446,81.231z M433.231,81.231H403.7c-8.157,0-14.769-6.613-14.769-14.769
			s6.613-14.769,14.769-14.769h29.531c8.157,0,14.769,6.613,14.769,14.769S441.387,81.231,433.231,81.231z"/>
	</g>
</g>
<g>
	<g>
		<path d="M359.74,320.271c-8.716,5.363-19.561,12.037-39.742,12.037c-20.181,0-31.027-6.674-39.741-12.037
			c-7.222-4.446-12.441-7.655-24.261-7.655s-17.038,3.211-24.26,7.655c-8.715,5.362-19.559,12.037-39.739,12.037
			s-31.025-6.674-39.739-12.038c-3.223-1.983-6.047-3.715-9.231-5.03c3.897,58.93,53.074,105.684,112.973,105.684
			c59.899,0,109.076-46.754,112.974-105.684C365.789,316.555,362.964,318.287,359.74,320.271z"/>
	</g>
</g>
<g>
	<g>
		<path d="M256,194.462c-54.648,0-100.379,38.915-110.936,90.488c9.981,2.365,16.818,6.56,22.674,10.164
			c7.222,4.445,12.44,7.655,24.259,7.655c11.819,0,17.037-3.211,24.259-7.654c8.715-5.363,19.559-12.038,39.74-12.038
			c20.181,0,31.027,6.674,39.741,12.037c7.222,4.446,12.441,7.655,24.261,7.655c11.82,0,17.039-3.211,24.261-7.654
			c5.856-3.605,12.695-7.8,22.677-10.164C356.379,233.376,310.648,194.462,256,194.462z"/>
	</g>
</g>
<g>
	<g>
		<path d="M24.615,132.923v334.769c0,24.431,19.876,44.308,44.308,44.308h374.154c24.431,0,44.308-19.876,44.308-44.308V132.923
			H24.615z M256,450.462c-78.723,0-142.769-64.046-142.769-142.769c0-3.832,0.157-7.629,0.454-11.385
			c0.002-0.018,0.003-0.036,0.005-0.054c5.847-73.395,67.438-131.33,142.31-131.33s136.464,57.935,142.31,131.33
			c0.002,0.018,0.003,0.036,0.005,0.054c0.298,3.757,0.454,7.553,0.454,11.385C398.769,386.415,334.723,450.462,256,450.462z"/>
	</g>
</g>
<g>
</g>
<g>
</g>
<g>
</g>
<g>
</g>
<g>
</g>
<g>
</g>
<g>
</g>
<g>
</g>
<g>
</g>
<g>
</g>
<g>
</g>
<g>
</g>
<g>
</g>
<g>
</g>
<g>
</g>
</svg>
