<svg id="Layer_1" enable-background="new 0 0 512 512" height="512" viewBox="0 0 512 512" width="512" xmlns="http://www.w3.org/2000/svg"><g><path d="m408 0h-304c-26.467 0-48 21.533-48 48v448c0 8.836 7.164 16 16 16h368c8.837 0 16-7.164 16-16v-448c0-26.467-21.532-48-48-48zm-304 32h304c8.822 0 16 7.178 16 16v48h-336v-48c0-8.822 7.178-16 16-16zm-16 448v-352h336v352z"/><path d="m376 80h8c8.837 0 16-7.164 16-16s-7.163-16-16-16h-8c-8.837 0-16 7.164-16 16s7.163 16 16 16z"/><path d="m312 80h8c8.837 0 16-7.164 16-16s-7.163-16-16-16h-8c-8.837 0-16 7.164-16 16s7.163 16 16 16z"/><path d="m383.997 303.796c-.111-70.486-57.486-127.796-127.997-127.796-70.577 0-127.996 57.416-128 127.992-.121 69.729 56.707 128.008 128 128.008 71.916 0 128.818-59.524 127.997-128.204zm-127.997-95.796c49.349 0 90.114 37.431 95.411 85.392-42.72 15.758-64.354 6.511-89.108-4.098-24.974-10.702-52.8-22.622-99.301-9.152 10.635-41.431 48.297-72.142 92.998-72.142zm0 192c-49.349 0-90.114-37.431-95.411-85.391 72.61-26.782 87.018 19.26 149.168 19.258 11.524-.001 24.445-1.733 39.244-6.018-10.631 41.435-48.296 72.151-93.001 72.151z"/></g></svg>